<svg width="500" height="500" xmlns="http://www.w3.org/2000/svg">
    <!--    <rect x="0" y="0" width="500" height="500"-->
    <!--          style="fill:url(#my_gradient);stroke:url(#my_gradient);stroke-width:0;stroke-linejoin:round"/>-->
    <polygon
            points="35.0,354.7 39.4,245.0 96.4,109.0 188.6,78.3 201.7,100.2 250.0,100.2 298.3,100.2 311.4,78.3 403.6,109.0 460.6,245.0 465.0,354.7 355.3,411.7 333.4,372.2 368.5,354.7 359.7,345.9 250.0,372.2 140.3,345.9 131.5,354.7 166.6,372.2 144.7,411.7"
            style="fill:url(#bg_gradient);stroke:#2B2D31;stroke-width:5;stroke-linejoin:round"/>
    <polygon
            points="35.0,354.7 39.4,245.0 96.4,109.0 188.6,78.3 201.7,100.2 250.0,100.2 298.3,100.2 311.4,78.3 403.6,109.0 460.6,245.0 465.0,354.7 355.3,411.7 333.4,372.2 368.5,354.7 359.7,345.9 250.0,372.2 140.3,345.9 131.5,354.7 166.6,372.2 144.7,411.7"
            style="fill:none;stroke:url(#my_gradient);stroke-width:10;stroke-linejoin:round"/>
    <polygon
            points="105.2,253.8 109.6,310.8 162.2,337.1 236.8,310.8 250.0,293.3 263.2,310.8 337.8,337.1 390.4,310.8 394.8,253.8 381.6,271.3 315.8,245.0 293.9,236.2 267.6,245.0 250.0,266.9 232.4,245.0 206.1,236.2 184.2,245.0 118.4,271.3"
            style="fill:none;stroke:url(#my_gradient);stroke-width:10;stroke-linejoin:round"/>
    <path d="M 188.6 218.7 A 37.3 37.3 0 1 1 219.3 196.7 Z"
          style="fill:none;stroke:url(#my_gradient);stroke-width:10;stroke-linejoin:round"/>
    <path d="M 280.7 196.7 A 37.3 37.3 0 1 1 311.4 218.7 Z"
          style="fill:none;stroke:url(#my_gradient);stroke-width:10;stroke-linejoin:round"/>
    <defs>
        <linearGradient id="my_gradient"
                        x1="15" y1="10" x2="485" y2="400"
                        gradientUnits="userSpaceOnUse">
            <stop offset="0" stop-color="#282724"/>
            <stop offset="0.3" stop-color="#ea625e"/>
            <stop offset="1" stop-color="#1abcbc"/>
        </linearGradient>
        <linearGradient id="bg_gradient"
                        x1="15" y1="10" x2="485" y2="490"
                        gradientUnits="userSpaceOnUse">
            <stop offset="0" stop-color="#25211D"/>
            <stop offset="0.3" stop-color="#2B2D31"/>
            <stop offset="0.4945" stop-color="#2B2D31"/>
            <stop offset="0.4945" stop-color="#313338"/>
            <stop offset="0.85" stop-color="#373F46"/>
        </linearGradient>
    </defs>
</svg>